<?xml version="1.0" encoding="UTF-8" standalone="no"?>
<!-- Created with Inkscape (http://www.inkscape.org/) -->

<svg
   xmlns:dc="http://purl.org/dc/elements/1.1/"
   xmlns:cc="http://creativecommons.org/ns#"
   xmlns:rdf="http://www.w3.org/1999/02/22-rdf-syntax-ns#"
   xmlns:svg="http://www.w3.org/2000/svg"
   xmlns="http://www.w3.org/2000/svg"
   xmlns:xlink="http://www.w3.org/1999/xlink"
   xmlns:sodipodi="http://sodipodi.sourceforge.net/DTD/sodipodi-0.dtd"
   xmlns:inkscape="http://www.inkscape.org/namespaces/inkscape"
   width="744.09448819"
   height="1052.3622047"
   id="svg2"
   version="1.1"
   inkscape:version="0.48.2 r9819"
   sodipodi:docname="buttons.svg">
  <defs
     id="defs4">
    <linearGradient
       id="linearGradient4650">
      <stop
         style="stop-color:#ffd118;stop-opacity:0;"
         offset="0"
         id="stop4652" />
      <stop
         id="stop4658"
         offset="0.5"
         style="stop-color:#ffd118;stop-opacity:1;" />
      <stop
         style="stop-color:#ffd118;stop-opacity:0;"
         offset="1"
         id="stop4654" />
    </linearGradient>
    <pattern
       inkscape:stockid="Polka dots, large white"
       id="Polkadots-largewhite"
       patternTransform="translate(0,0) scale(10,10)"
       height="10"
       width="10"
       patternUnits="userSpaceOnUse"
       inkscape:collect="always">
      <circle
         id="circle6395"
         r="0.45"
         cy="0.810"
         cx="2.567"
         style="fill:white;stroke:none" />
      <circle
         id="circle6397"
         r="0.45"
         cy="2.33"
         cx="3.048"
         style="fill:white;stroke:none" />
      <circle
         id="circle6399"
         r="0.45"
         cy="2.415"
         cx="4.418"
         style="fill:white;stroke:none" />
      <circle
         id="circle6401"
         r="0.45"
         cy="3.029"
         cx="1.844"
         style="fill:white;stroke:none" />
      <circle
         id="circle6403"
         r="0.45"
         cy="1.363"
         cx="6.08"
         style="fill:white;stroke:none" />
      <circle
         id="circle6405"
         r="0.45"
         cy="4.413"
         cx="5.819"
         style="fill:white;stroke:none" />
      <circle
         id="circle6407"
         r="0.45"
         cy="4.048"
         cx="4.305"
         style="fill:white;stroke:none" />
      <circle
         id="circle6409"
         r="0.45"
         cy="3.045"
         cx="5.541"
         style="fill:white;stroke:none" />
      <circle
         id="circle6411"
         r="0.45"
         cy="5.527"
         cx="4.785"
         style="fill:white;stroke:none" />
      <circle
         id="circle6413"
         r="0.45"
         cy="5.184"
         cx="2.667"
         style="fill:white;stroke:none" />
      <circle
         id="circle6415"
         r="0.45"
         cy="1.448"
         cx="7.965"
         style="fill:white;stroke:none" />
      <circle
         id="circle6417"
         r="0.45"
         cy="5.049"
         cx="7.047"
         style="fill:white;stroke:none" />
      <circle
         id="circle6419"
         r="0.45"
         cy="0.895"
         cx="4.340"
         style="fill:white;stroke:none" />
      <circle
         id="circle6421"
         r="0.45"
         cy="0.340"
         cx="7.125"
         style="fill:white;stroke:none" />
      <circle
         id="circle6423"
         r="0.45"
         cy="1.049"
         cx="9.553"
         style="fill:white;stroke:none" />
      <circle
         id="circle6425"
         r="0.45"
         cy="2.689"
         cx="7.006"
         style="fill:white;stroke:none" />
      <circle
         id="circle6427"
         r="0.45"
         cy="2.689"
         cx="8.909"
         style="fill:white;stroke:none" />
      <circle
         id="circle6429"
         r="0.45"
         cy="4.407"
         cx="9.315"
         style="fill:white;stroke:none" />
      <circle
         id="circle6431"
         r="0.45"
         cy="3.870"
         cx="7.820"
         style="fill:white;stroke:none" />
      <circle
         id="circle6433"
         r="0.45"
         cy="5.948"
         cx="8.270"
         style="fill:white;stroke:none" />
      <circle
         id="circle6435"
         r="0.45"
         cy="7.428"
         cx="7.973"
         style="fill:white;stroke:none" />
      <circle
         id="circle6437"
         r="0.45"
         cy="8.072"
         cx="9.342"
         style="fill:white;stroke:none" />
      <circle
         id="circle6439"
         r="0.45"
         cy="9.315"
         cx="8.206"
         style="fill:white;stroke:none" />
      <circle
         id="circle6441"
         r="0.45"
         cy="9.475"
         cx="9.682"
         style="fill:white;stroke:none" />
      <circle
         id="circle6443"
         r="0.45"
         cy="6.186"
         cx="9.688"
         style="fill:white;stroke:none" />
      <circle
         id="circle6445"
         r="0.45"
         cy="6.296"
         cx="3.379"
         style="fill:white;stroke:none" />
      <circle
         id="circle6447"
         r="0.45"
         cy="8.204"
         cx="2.871"
         style="fill:white;stroke:none" />
      <circle
         id="circle6449"
         r="0.45"
         cy="8.719"
         cx="4.59"
         style="fill:white;stroke:none" />
      <circle
         id="circle6451"
         r="0.45"
         cy="9.671"
         cx="3.181"
         style="fill:white;stroke:none" />
      <circle
         id="circle6453"
         r="0.45"
         cy="7.315"
         cx="5.734"
         style="fill:white;stroke:none" />
      <circle
         id="circle6455"
         r="0.45"
         cy="6.513"
         cx="6.707"
         style="fill:white;stroke:none" />
      <circle
         id="circle6457"
         r="0.45"
         cy="9.670"
         cx="5.730"
         style="fill:white;stroke:none" />
      <circle
         id="circle6459"
         r="0.45"
         cy="8.373"
         cx="6.535"
         style="fill:white;stroke:none" />
      <circle
         id="circle6461"
         r="0.45"
         cy="7.154"
         cx="4.37"
         style="fill:white;stroke:none" />
      <circle
         id="circle6463"
         r="0.45"
         cy="7.25"
         cx="0.622"
         style="fill:white;stroke:none" />
      <circle
         id="circle6465"
         r="0.45"
         cy="5.679"
         cx="0.831"
         style="fill:white;stroke:none" />
      <circle
         id="circle6467"
         r="0.45"
         cy="8.519"
         cx="1.257"
         style="fill:white;stroke:none" />
      <circle
         id="circle6469"
         r="0.45"
         cy="6.877"
         cx="1.989"
         style="fill:white;stroke:none" />
      <circle
         id="circle6471"
         r="0.45"
         cy="3.181"
         cx="0.374"
         style="fill:white;stroke:none" />
      <circle
         id="circle6473"
         r="0.45"
         cy="1.664"
         cx="1.166"
         style="fill:white;stroke:none" />
      <circle
         id="circle6475"
         r="0.45"
         cy="0.093"
         cx="1.151"
         style="fill:white;stroke:none" />
      <circle
         id="circle6477"
         r="0.45"
         cy="10.093"
         cx="1.151"
         style="fill:white;stroke:none" />
      <circle
         id="circle6479"
         r="0.45"
         cy="4.451"
         cx="1.302"
         style="fill:white;stroke:none" />
      <circle
         id="circle6481"
         r="0.45"
         cy="3.763"
         cx="3.047"
         style="fill:white;stroke:none" />
    </pattern>
    <linearGradient
       inkscape:collect="always"
       xlink:href="#linearGradient4650"
       id="linearGradient4656"
       x1="54.516643"
       y1="221.82647"
       x2="76.911928"
       y2="221.82647"
       gradientUnits="userSpaceOnUse" />
    <linearGradient
       inkscape:collect="always"
       xlink:href="#linearGradient4650-3"
       id="linearGradient4656-0"
       x1="54.516644"
       y1="221.82648"
       x2="76.911926"
       y2="221.82648"
       gradientUnits="userSpaceOnUse" />
    <linearGradient
       id="linearGradient4650-3">
      <stop
         style="stop-color:#ffeb9a;stop-opacity:0;"
         offset="0"
         id="stop4652-1" />
      <stop
         id="stop4658-3"
         offset="0.5"
         style="stop-color:#fff3c3;stop-opacity:1;" />
      <stop
         style="stop-color:#fff0b5;stop-opacity:0;"
         offset="1"
         id="stop4654-3" />
    </linearGradient>
    <linearGradient
       gradientTransform="translate(31.071428,-0.53571305)"
       y2="221.82648"
       x2="76.911926"
       y1="221.82648"
       x1="54.516644"
       gradientUnits="userSpaceOnUse"
       id="linearGradient4676"
       xlink:href="#linearGradient4650-3"
       inkscape:collect="always" />
  </defs>
  <sodipodi:namedview
     id="base"
     pagecolor="#ffffff"
     bordercolor="#666666"
     borderopacity="1.0"
     inkscape:pageopacity="0.0"
     inkscape:pageshadow="2"
     inkscape:zoom="2.8"
     inkscape:cx="292.86292"
     inkscape:cy="887.21522"
     inkscape:document-units="px"
     inkscape:current-layer="layer1"
     showgrid="false"
     inkscape:window-width="2325"
     inkscape:window-height="1459"
     inkscape:window-x="28"
     inkscape:window-y="0"
     inkscape:window-maximized="0" />
  <metadata
     id="metadata7">
    <rdf:RDF>
      <cc:Work
         rdf:about="">
        <dc:format>image/svg+xml</dc:format>
        <dc:type
           rdf:resource="http://purl.org/dc/dcmitype/StillImage" />
        <dc:title></dc:title>
      </cc:Work>
    </rdf:RDF>
  </metadata>
  <g
     inkscape:label="Layer 1"
     inkscape:groupmode="layer"
     id="layer1">
    <rect
       style="fill:#000000;fill-opacity:1;stroke:none"
       id="rect5044"
       width="185.75505"
       height="218.68367"
       x="1.3355882"
       y="-8.7092419" />
    <g
       id="g3918"
       inkscape:export-xdpi="135"
       inkscape:export-ydpi="135"
       inkscape:export-filename="D:\Dev\Emulatorer\potemkin\android\source_assets\image\round.png">
      <path
         inkscape:export-ydpi="135"
         inkscape:export-xdpi="135"
         inkscape:export-filename="D:\Dev\Emulatorer\potemkin\gfx\round.png"
         transform="matrix(0.12501803,0,0,0.12501803,39.336944,16.936311)"
         d="m 257.14286,175.21933 a 142.85715,140 0 1 1 -285.714294,0 142.85715,140 0 1 1 285.714294,0 z"
         sodipodi:ry="140"
         sodipodi:rx="142.85715"
         sodipodi:cy="175.21933"
         sodipodi:cx="114.28571"
         id="path4099"
         style="fill:#ffffff;fill-opacity:0.67021275;stroke:none"
         sodipodi:type="arc" />
      <path
         inkscape:export-ydpi="135"
         inkscape:export-xdpi="135"
         inkscape:export-filename="D:\Dev\Emulatorer\potemkin\gfx\round.png"
         transform="matrix(0.10265859,0,0,0.10265859,41.892308,20.854117)"
         d="m 257.14286,175.21933 a 142.85715,140 0 1 1 -285.714294,0 142.85715,140 0 1 1 285.714294,0 z"
         sodipodi:ry="140"
         sodipodi:rx="142.85715"
         sodipodi:cy="175.21933"
         sodipodi:cx="114.28571"
         id="path4099-1"
         style="fill:#ffffff;fill-opacity:0.67021275;stroke:none"
         sodipodi:type="arc" />
    </g>
    <g
       id="g3922">
      <path
         inkscape:export-ydpi="135"
         inkscape:export-xdpi="135"
         inkscape:export-filename="D:\Dev\Emulatorer\potemkin\android\source_assets\image\dir.png"
         sodipodi:nodetypes="cccccc"
         inkscape:connector-curvature="0"
         id="rect4891"
         d="m 40.960556,72.970184 26.951938,0 12.339439,14.148651 -12.339439,14.102175 -26.951938,0 z"
         style="fill:#ffffff;fill-opacity:0.67021275;stroke:none" />
      <path
         inkscape:export-ydpi="135"
         inkscape:export-xdpi="135"
         inkscape:export-filename="D:\Dev\Emulatorer\potemkin\android\source_assets\image\dir.png"
         sodipodi:nodetypes="cccccc"
         inkscape:connector-curvature="0"
         id="rect4891-0"
         d="m 44.045416,76.055041 21.828843,0 9.993929,11.221346 -9.993929,11.184482 -21.828843,0 z"
         style="fill:#ffffff;fill-opacity:0.67021275;stroke:none" />
    </g>
    <g
       id="g3914"
       inkscape:export-filename="D:\Dev\Emulatorer\potemkin\android\source_assets\image\rect.png"
       inkscape:export-xdpi="135"
       inkscape:export-ydpi="135">
      <rect
         inkscape:export-ydpi="135"
         inkscape:export-xdpi="135"
         inkscape:export-filename="D:\Dev\Emulatorer\potemkin\gfx\rect.png"
         y="114.53461"
         x="34.285713"
         height="19.970411"
         width="52.862854"
         id="rect4948"
         style="fill:#ffffff;fill-opacity:0.67021275;stroke:none" />
      <rect
         inkscape:export-ydpi="135"
         inkscape:export-xdpi="135"
         inkscape:export-filename="D:\Dev\Emulatorer\potemkin\gfx\rect.png"
         y="117.44022"
         x="37.077831"
         height="14.159182"
         width="47.278622"
         id="rect4948-9"
         style="fill:#ffffff;fill-opacity:0.67021275;stroke:none" />
    </g>
    <path
       style="fill:#ffffff;fill-opacity:1;stroke:none"
       d="m 107.20702,8.5620214 -8.258373,8.2583646 -8.25575,-8.2557466 -1.91343,1.9134266 8.25575,8.255749 -8.25575,8.255748 1.91605,1.916045 8.25575,-8.255748 8.255753,8.255748 1.91342,-1.913427 -8.25575,-8.255748 8.25837,-8.258367 -1.91604,-1.9160446 z"
       id="rect4968"
       inkscape:connector-curvature="0"
       inkscape:export-filename="D:\Dev\Emulatorer\potemkin\gfx\cross.png"
       inkscape:export-xdpi="135"
       inkscape:export-ydpi="135" />
    <path
       style="fill:#ffffff;fill-opacity:1;stroke:none"
       d="m 122.2247,8.5799894 -5.63101,9.7516116 -5.63101,9.751609 11.26202,0 11.25922,0 -5.63102,-9.751609 z m 0,4.3709276 3.70151,6.472008 3.7015,6.443254 -7.40301,0 -7.40301,0 3.70151,-6.443254 z"
       id="path4991"
       inkscape:connector-curvature="0"
       inkscape:export-filename="D:\Dev\Emulatorer\potemkin\gfx\circle.png"
       inkscape:export-xdpi="135"
       inkscape:export-ydpi="135"
       sodipodi:nodetypes="cccccccccccccc" />
    <path
       style="fill:#ffffff;fill-opacity:1;stroke:none"
       d="m 98.629957,31.849006 c -5.92963,0 -10.73686,4.807225 -10.73686,10.736856 0,5.929635 4.80723,10.736852 10.73686,10.736852 5.929633,0 10.734713,-4.807217 10.734713,-10.736852 0,-5.929631 -4.80508,-10.736856 -10.734713,-10.736856 z m 0,2.41326 c 4.596833,0 8.321443,3.72677 8.321443,8.323596 0,4.596824 -3.72461,8.323598 -8.321443,8.323598 -4.59682,0 -8.3236,-3.726774 -8.3236,-8.323598 0,-4.596826 3.72678,-8.323596 8.3236,-8.323596 z"
       id="path5012"
       inkscape:connector-curvature="0"
       inkscape:export-filename="D:\Dev\Emulatorer\potemkin\gfx\circle.png"
       inkscape:export-xdpi="135"
       inkscape:export-ydpi="135" />
    <path
       style="fill:#ffffff;fill-opacity:1;stroke:none"
       d="m 112.83794,32.491906 0,19.545807 19.28584,0 0,-19.545807 -19.28584,0 z m 2.49666,2.529991 14.295,0 0,14.485834 -14.295,0 0,-14.485834 z"
       id="rect5039"
       inkscape:connector-curvature="0"
       inkscape:export-filename="D:\Dev\Emulatorer\potemkin\gfx\square.png"
       inkscape:export-xdpi="135"
       inkscape:export-ydpi="135" />
    <path
       style="fill:#ffffff;fill-opacity:1;stroke:none"
       d="m 147.13435,34.280283 -8.40102,8.317997 8.40102,8.284791 c -0.0767,-5.350821 -0.0448,-11.205426 0,-16.602788 z m -1.7433,4.499356 c -0.0216,2.4745 -0.0369,5.150912 0,7.604076 l -4.03447,-3.785435 4.03447,-3.818641 z"
       id="rect4891-0-5-5"
       inkscape:connector-curvature="0"
       inkscape:export-filename="D:\Dev\Emulatorer\potemkin\gfx\arrow.png"
       inkscape:export-xdpi="135"
       inkscape:export-ydpi="135" />
    <g
       id="g4642"
       inkscape:export-filename="D:\Dev\Emulatorer\potemkin\android\source_assets\image\stick.png"
       inkscape:export-xdpi="135"
       inkscape:export-ydpi="135">
      <path
         inkscape:export-ydpi="135"
         inkscape:export-xdpi="135"
         inkscape:export-filename="D:\Dev\Emulatorer\potemkin\gfx\stick.png"
         transform="matrix(0.20279977,0,0,0.20279977,128.34577,81.426482)"
         d="m 257.14286,175.21933 a 142.85715,140 0 1 1 -285.714294,0 142.85715,140 0 1 1 285.714294,0 z"
         sodipodi:ry="140"
         sodipodi:rx="142.85715"
         sodipodi:cy="175.21933"
         sodipodi:cx="114.28571"
         id="path4099-17"
         style="fill:#ffffff;fill-opacity:0.67021275;stroke:none"
         sodipodi:type="arc" />
      <path
         inkscape:export-ydpi="135"
         inkscape:export-xdpi="135"
         inkscape:export-filename="D:\Dev\Emulatorer\potemkin\gfx\stick.png"
         transform="matrix(0.18067123,0,0,0.18067123,130.87474,85.303838)"
         d="m 257.14286,175.21933 a 142.85715,140 0 1 1 -285.714294,0 142.85715,140 0 1 1 285.714294,0 z"
         sodipodi:ry="140"
         sodipodi:rx="142.85715"
         sodipodi:cy="175.21933"
         sodipodi:cx="114.28571"
         id="path4099-1-1"
         style="opacity:0.46902651;fill:url(#Polkadots-largewhite);fill-opacity:1;stroke:none"
         sodipodi:type="arc" />
    </g>
    <g
       id="g3910"
       inkscape:export-filename="D:\Dev\Emulatorer\potemkin\android\source_assets\image\shoulder.png"
       inkscape:export-xdpi="135"
       inkscape:export-ydpi="135">
      <path
         sodipodi:nodetypes="ccccc"
         inkscape:connector-curvature="0"
         id="rect4948-1"
         d="m -209.01624,172.9664 c 0,0 56.95966,-1.22843 62.44214,5.17045 3.64304,10.55266 3.3703,20.66414 3.3703,20.66414 l -76.38753,0 z"
         style="fill:#ffffff;fill-opacity:0.67021275;stroke:none"
         transform="matrix(-1,0,-0.4247234,0.90532316,0,0)" />
      <path
         sodipodi:nodetypes="ccccc"
         inkscape:connector-curvature="0"
         id="rect4948-9-5"
         d="m -203.65447,175.44588 c 0,0 54.60904,-1.64431 56.96261,5.55382 2.10159,4.89409 3.0125,12.70634 3.0125,12.70634 l -67.29557,-0.27685 z"
         style="fill:#ffffff;fill-opacity:0.67021275;stroke:none"
         transform="matrix(-1,0,-0.40979055,0.91217965,0,0)" />
    </g>
    <path
       sodipodi:type="arc"
       style="fill:#808080;fill-opacity:0.0851064;stroke:#000000;opacity:1;stroke-opacity:0.18617021000000000;stroke-width:6.34753159999999990;stroke-miterlimit:4;stroke-dasharray:none"
       id="path4099-17-1"
       sodipodi:cx="114.28571"
       sodipodi:cy="175.21933"
       sodipodi:rx="142.85715"
       sodipodi:ry="140"
       d="m 257.14286,175.21933 a 142.85715,140 0 1 1 -285.714294,0 142.85715,140 0 1 1 285.714294,0 z"
       transform="matrix(0.28058151,0,0,0.28058151,198.50086,68.302704)"
       inkscape:export-filename="D:\Dev\Emulatorer\potemkin\android\source_assets\image\stick_bg.png"
       inkscape:export-xdpi="135"
       inkscape:export-ydpi="135" />
    <g
       style="font-size:40px;font-style:normal;font-weight:normal;line-height:125%;letter-spacing:0px;word-spacing:0px;fill:#ffffff;fill-opacity:1;stroke:none;font-family:Sans"
       id="text3903"
       inkscape:export-filename="D:\Dev\Emulatorer\potemkin\android\source_assets\image\select.png"
       inkscape:export-xdpi="135"
       inkscape:export-ydpi="135">
      <path
         d="m 89.179947,66.471458 1.072266,-0.09375 c 0.05078,0.42969 0.168943,0.782229 0.354492,1.057618 0.185544,0.275392 0.47363,0.498048 0.864258,0.667968 0.390621,0.169923 0.830074,0.254884 1.318359,0.254883 0.433589,10e-7 0.816401,-0.06445 1.148437,-0.193359 0.332026,-0.128905 0.579096,-0.305663 0.741211,-0.530274 0.162104,-0.224607 0.243158,-0.469724 0.243164,-0.735351 -6e-6,-0.269529 -0.07813,-0.50488 -0.234375,-0.706055 -0.156255,-0.201169 -0.414068,-0.370114 -0.773437,-0.506836 -0.230474,-0.08984 -0.740239,-0.229488 -1.529297,-0.418945 -0.789065,-0.189449 -1.341799,-0.36816 -1.658203,-0.536133 -0.410158,-0.214839 -0.715822,-0.48144 -0.916992,-0.799805 -0.201173,-0.318353 -0.301759,-0.674798 -0.301758,-1.069336 -10e-7,-0.433587 0.123046,-0.83886 0.369141,-1.21582 0.246092,-0.376945 0.605466,-0.663078 1.078125,-0.858398 0.472653,-0.195304 0.998043,-0.29296 1.576171,-0.292969 0.636715,9e-6 1.198237,0.102548 1.684571,0.307617 0.486322,0.205086 0.860345,0.506844 1.12207,0.905274 0.261712,0.398444 0.402337,0.849616 0.421875,1.353515 l -1.089844,0.08203 c -0.0586,-0.542962 -0.256841,-0.953118 -0.594726,-1.230468 -0.337896,-0.277336 -0.836919,-0.416008 -1.497071,-0.416016 -0.687503,8e-6 -1.188479,0.125984 -1.502929,0.37793 -0.314456,0.25196 -0.471682,0.555671 -0.47168,0.911133 -2e-6,0.308599 0.111326,0.562505 0.333984,0.761718 0.218748,0.199225 0.790036,0.403326 1.713868,0.612305 0.923823,0.208989 1.557611,0.391606 1.901367,0.547852 0.499993,0.230473 0.869134,0.522464 1.107422,0.875976 0.238274,0.353519 0.357414,0.760745 0.357422,1.22168 -8e-6,0.457033 -0.130867,0.887697 -0.392579,1.291992 -0.261725,0.404298 -0.637701,0.71875 -1.127929,0.943359 -0.49024,0.22461 -1.041997,0.336914 -1.655274,0.336914 -0.777347,0 -1.428713,-0.113281 -1.954101,-0.339843 -0.525393,-0.226562 -0.937502,-0.567382 -1.236328,-1.022461 -0.298829,-0.455077 -0.456056,-0.969725 -0.47168,-1.543946 z"
         style="font-size:12px;line-height:125%;fill:#ffffff;fill-opacity:1"
         id="path3940" />
      <path
         d="m 97.605728,69.231224 0,-8.589844 6.210942,0 0,1.013672 -5.074223,0 0,2.63086 4.751953,0 0,1.007812 -4.751953,0 0,2.923828 5.273433,0 0,1.013672 z"
         style="font-size:12px;line-height:125%;fill:#ffffff;fill-opacity:1"
         id="path3942" />
      <path
         d="m 105.55104,69.231224 0,-8.589844 1.13672,0 0,7.576172 4.23047,0 0,1.013672 z"
         style="font-size:12px;line-height:125%;fill:#ffffff;fill-opacity:1"
         id="path3944" />
      <path
         d="m 112.30104,69.231224 0,-8.589844 6.21094,0 0,1.013672 -5.07422,0 0,2.63086 4.75195,0 0,1.007812 -4.75195,0 0,2.923828 5.27344,0 0,1.013672 z"
         style="font-size:12px;line-height:125%;fill:#ffffff;fill-opacity:1"
         id="path3946" />
      <path
         d="m 126.42213,66.219505 1.13672,0.28711 c -0.23829,0.933595 -0.667,1.645509 -1.28613,2.135742 -0.61915,0.490234 -1.37598,0.735351 -2.27051,0.735351 -0.92578,0 -1.67871,-0.188476 -2.25879,-0.565429 -0.58008,-0.376953 -1.02148,-0.92285 -1.32422,-1.637696 -0.30273,-0.714841 -0.4541,-1.482418 -0.4541,-2.302734 0,-0.894526 0.1709,-1.674799 0.5127,-2.34082 0.34179,-0.666009 0.82812,-1.171867 1.45898,-1.517578 0.63086,-0.345695 1.32519,-0.518546 2.08301,-0.518555 0.85937,9e-6 1.58203,0.218758 2.16797,0.65625 0.58593,0.437508 0.99413,1.052741 1.22461,1.845703 l -1.11914,0.263672 c -0.19923,-0.624993 -0.48829,-1.080071 -0.86719,-1.365234 -0.37891,-0.285149 -0.85547,-0.427727 -1.42969,-0.427735 -0.66016,8e-6 -1.21191,0.158211 -1.65527,0.47461 -0.44336,0.316413 -0.75489,0.741217 -0.93457,1.274414 -0.17969,0.533208 -0.26953,1.083012 -0.26953,1.649414 0,0.730472 0.10644,1.368167 0.31933,1.913086 0.21289,0.544923 0.54395,0.95215 0.99317,1.221679 0.44921,0.269533 0.93554,0.404298 1.45898,0.404297 0.63672,10e-7 1.17578,-0.183593 1.61719,-0.550781 0.4414,-0.367186 0.74023,-0.912107 0.89648,-1.634766 z"
         style="font-size:12px;line-height:125%;fill:#ffffff;fill-opacity:1"
         id="path3948" />
      <path
         d="m 131.15065,69.231224 0,-7.576172 -2.83008,0 0,-1.013672 6.8086,0 0,1.013672 -2.8418,0 0,7.576172 z"
         style="font-size:12px;line-height:125%;fill:#ffffff;fill-opacity:1"
         id="path3950" />
    </g>
    <g
       id="g3128">
      <path
         d="m 89.273987,80.321037 1.072265,-0.09375 c 0.05078,0.42969 0.168944,0.782229 0.354493,1.057617 0.185544,0.275393 0.47363,0.498049 0.864257,0.667969 0.390622,0.169923 0.830075,0.254884 1.31836,0.254883 0.433589,10e-7 0.816401,-0.06445 1.148437,-0.193359 0.332026,-0.128905 0.579096,-0.305663 0.741211,-0.530274 0.162103,-0.224607 0.243158,-0.469724 0.243164,-0.735351 -6e-6,-0.269529 -0.07813,-0.50488 -0.234375,-0.706055 -0.156256,-0.201169 -0.414068,-0.370114 -0.773437,-0.506836 -0.230474,-0.08984 -0.740239,-0.229488 -1.529297,-0.418945 -0.789066,-0.189449 -1.341799,-0.36816 -1.658203,-0.536133 -0.410158,-0.214839 -0.715822,-0.48144 -0.916992,-0.799805 -0.201173,-0.318354 -0.301759,-0.674798 -0.301758,-1.069336 -1e-6,-0.433587 0.123046,-0.83886 0.36914,-1.21582 0.246093,-0.376945 0.605467,-0.663078 1.078125,-0.858398 0.472654,-0.195304 0.998044,-0.29296 1.576172,-0.292969 0.636715,9e-6 1.198237,0.102547 1.684571,0.307617 0.486322,0.205086 0.860345,0.506844 1.12207,0.905273 0.261712,0.398445 0.402337,0.849616 0.421875,1.353516 l -1.089844,0.08203 c -0.0586,-0.542962 -0.256842,-0.953118 -0.594726,-1.230468 -0.337896,-0.277337 -0.836919,-0.416008 -1.497071,-0.416016 -0.687503,8e-6 -1.188479,0.125984 -1.502929,0.37793 -0.314456,0.25196 -0.471682,0.55567 -0.47168,0.911132 -2e-6,0.3086 0.111326,0.562506 0.333984,0.761719 0.218748,0.199224 0.790036,0.403326 1.713868,0.612305 0.923823,0.208989 1.557611,0.391606 1.901367,0.547851 0.499993,0.230473 0.869134,0.522465 1.107422,0.875977 0.238274,0.353519 0.357414,0.760745 0.357421,1.22168 -7e-6,0.457033 -0.130866,0.887697 -0.392578,1.291992 -0.261725,0.404297 -0.637701,0.71875 -1.127929,0.943359 -0.49024,0.22461 -1.041997,0.336914 -1.655274,0.336914 -0.777347,0 -1.428714,-0.113281 -1.954101,-0.339843 -0.525393,-0.226563 -0.937502,-0.567383 -1.236328,-1.022461 -0.298829,-0.455077 -0.456056,-0.969725 -0.47168,-1.543946 z"
         style="font-size:12px;font-style:normal;font-weight:normal;line-height:125%;letter-spacing:0px;word-spacing:0px;fill:#ffffff;fill-opacity:1;stroke:none;font-family:Sans"
         id="path3929"
         inkscape:connector-curvature="0" />
      <path
         d="m 99.861877,83.080803 0,-7.576172 -2.830078,0 0,-1.013672 6.808591,0 0,1.013672 -2.84179,0 0,7.576172 z"
         style="font-size:12px;font-style:normal;font-weight:normal;line-height:125%;letter-spacing:0px;word-spacing:0px;fill:#ffffff;fill-opacity:1;stroke:none;font-family:Sans"
         id="path3931"
         inkscape:connector-curvature="0" />
      <path
         d="m 103.71177,83.080803 3.29883,-8.589844 1.22461,0 3.51562,8.589844 -1.29492,0 -1.00195,-2.601563 -3.5918,0 -0.94336,2.601563 z m 2.47851,-3.527344 2.91211,0 -0.89648,-2.378906 c -0.27344,-0.72265 -0.47657,-1.316399 -0.60938,-1.78125 -0.10937,0.550788 -0.26367,1.097663 -0.46289,1.640625 z"
         style="font-size:12px;font-style:normal;font-weight:normal;line-height:125%;letter-spacing:0px;word-spacing:0px;fill:#ffffff;fill-opacity:1;stroke:none;font-family:Sans"
         id="path3933"
         inkscape:connector-curvature="0" />
      <path
         d="m 113.04547,83.080803 0,-8.589844 3.80859,0 c 0.76562,9e-6 1.34766,0.07716 1.7461,0.231445 0.39843,0.154306 0.71679,0.426766 0.95508,0.817383 0.23827,0.390632 0.35741,0.822273 0.35742,1.294922 -1e-5,0.609381 -0.19727,1.123052 -0.5918,1.541016 -0.39454,0.417973 -1.00391,0.683598 -1.82812,0.796875 0.30077,0.144535 0.52929,0.287113 0.68554,0.427734 0.33203,0.304691 0.64648,0.68555 0.94336,1.142578 l 1.49414,2.337891 -1.42968,0 -1.13672,-1.787109 c -0.33204,-0.515623 -0.60548,-0.910154 -0.82032,-1.183594 -0.21484,-0.273434 -0.40723,-0.464841 -0.57714,-0.574219 -0.16993,-0.109371 -0.34278,-0.185543 -0.51856,-0.228516 -0.12891,-0.02734 -0.33985,-0.04101 -0.63281,-0.04102 l -1.31836,0 0,3.814453 z m 1.13672,-4.798828 2.44336,0 c 0.51953,5e-6 0.92578,-0.05371 1.21875,-0.161133 0.29296,-0.107417 0.51562,-0.279292 0.66797,-0.515625 0.15234,-0.236322 0.22851,-0.493158 0.22851,-0.770508 0,-0.406243 -0.14746,-0.740227 -0.44238,-1.001953 -0.29493,-0.261711 -0.76075,-0.39257 -1.39746,-0.392578 l -2.71875,0 z"
         style="font-size:12px;font-style:normal;font-weight:normal;line-height:125%;letter-spacing:0px;word-spacing:0px;fill:#ffffff;fill-opacity:1;stroke:none;font-family:Sans"
         id="path3935"
         inkscape:connector-curvature="0" />
      <path
         d="m 123.88531,83.080803 0,-7.576172 -2.83007,0 0,-1.013672 6.80859,0 0,1.013672 -2.8418,0 0,7.576172 z"
         style="font-size:12px;font-style:normal;font-weight:normal;line-height:125%;letter-spacing:0px;word-spacing:0px;fill:#ffffff;fill-opacity:1;stroke:none;font-family:Sans"
         id="path3937"
         inkscape:connector-curvature="0" />
    </g>
    <path
       inkscape:connector-curvature="0"
       id="path3136"
       style="font-size:14px;font-style:normal;font-weight:normal;line-height:125%;letter-spacing:0px;word-spacing:0px;fill:#ffffff;fill-opacity:1;stroke:none;font-family:Sans"
       d="m 159.23966,75.933617 0,-10.021485 1.32617,0 0,8.838867 4.93555,0 0,1.182618 z"
       inkscape:export-filename="D:\Dev\Emulatorer\potemkin\android\source_assets\image\L.png"
       inkscape:export-xdpi="135"
       inkscape:export-ydpi="135" />
    <path
       inkscape:connector-curvature="0"
       id="path3138"
       style="font-size:14px;font-style:normal;font-weight:normal;line-height:125%;letter-spacing:0px;word-spacing:0px;fill:#ffffff;fill-opacity:1;stroke:none;font-family:Sans"
       d="m 173.53639,75.933617 0,-10.021485 4.44336,0 c 0.89322,1e-5 1.57226,0.09002 2.03711,0.27002 0.46484,0.180022 0.83626,0.497893 1.11426,0.953613 0.27798,0.455738 0.41698,0.959318 0.41699,1.510742 -1e-5,0.710944 -0.23015,1.310228 -0.69043,1.797852 -0.46029,0.487635 -1.17123,0.797531 -2.13281,0.929687 0.3509,0.168625 0.6175,0.334965 0.7998,0.499024 0.38737,0.355472 0.75423,0.799808 1.10059,1.333008 l 1.74316,2.727539 -1.66797,0 -1.32617,-2.084961 c -0.38737,-0.60156 -0.70638,-1.061846 -0.95703,-1.38086 -0.25066,-0.319006 -0.4751,-0.542313 -0.67334,-0.669922 -0.19825,-0.127599 -0.39991,-0.216467 -0.60498,-0.266601 -0.15039,-0.0319 -0.39649,-0.04785 -0.73828,-0.04785 l -1.53809,0 0,4.450196 z m 1.32617,-5.598633 2.85059,0 c 0.60611,5e-6 1.08007,-0.06266 1.42188,-0.187988 0.34178,-0.12532 0.60155,-0.325841 0.77929,-0.601563 0.17773,-0.275709 0.2666,-0.575351 0.2666,-0.898926 0,-0.47395 -0.17204,-0.863598 -0.51611,-1.168945 -0.34408,-0.30533 -0.88754,-0.457999 -1.63037,-0.458008 l -3.17188,0 z"
       inkscape:export-filename="D:\Dev\Emulatorer\potemkin\android\source_assets\image\R.png"
       inkscape:export-xdpi="135"
       inkscape:export-ydpi="135" />
    <g
       transform="translate(46.609662,-0.35226337)"
       style="font-size:40px;font-style:normal;font-weight:normal;line-height:125%;letter-spacing:0px;word-spacing:0px;fill:#ffffff;fill-opacity:1;stroke:none;font-family:Sans"
       id="text3903-7-1"
       inkscape:export-filename="D:\Dev\Emulatorer\potemkin\android\source_assets\image\start.png"
       inkscape:export-xdpi="135"
       inkscape:export-ydpi="135" />
    <rect
       style="fill:#466071;fill-opacity:1;stroke:#ffffff;stroke-width:1.68100000000000000;stroke-linecap:round;stroke-linejoin:bevel;stroke-miterlimit:4;stroke-opacity:0.64893615;stroke-dasharray:none"
       id="rect4646"
       width="8.880887"
       height="31.998003"
       x="14.999998"
       y="218.07646"
       inkscape:export-filename="D:\Dev\Emulatorer\potemkin\android\source_assets\image\button.png"
       inkscape:export-xdpi="135"
       inkscape:export-ydpi="135" />
    <rect
       style="fill:url(#linearGradient4656);fill-opacity:1;stroke:none"
       id="rect4648"
       width="21.428572"
       height="33.214287"
       x="55.357143"
       y="217.71933"
       inkscape:export-filename="D:\Dev\Emulatorer\potemkin\android\source_assets\image\active_item.png"
       inkscape:export-xdpi="135"
       inkscape:export-ydpi="135" />
    <rect
       style="fill:url(#linearGradient4676);fill-opacity:1;stroke:none"
       id="rect4648-7"
       width="21.42857"
       height="33.214287"
       x="86.428574"
       y="217.18362"
       inkscape:export-filename="D:\Dev\Emulatorer\potemkin\android\source_assets\image\inactive_item.png"
       inkscape:export-xdpi="135"
       inkscape:export-ydpi="135" />
    <rect
       style="fill:#809eb0;fill-opacity:1;stroke:#ffffff;stroke-width:1.68099999000000010;stroke-linecap:round;stroke-linejoin:bevel;stroke-miterlimit:4;stroke-opacity:0.64893613000000006;stroke-dasharray:none"
       id="rect4646-3"
       width="8.880887"
       height="31.998003"
       x="33.416698"
       y="218.50604"
       inkscape:export-filename="D:\Dev\Emulatorer\potemkin\android\source_assets\image\button_selected.png"
       inkscape:export-xdpi="135"
       inkscape:export-ydpi="135" />
    <path
       style="fill:#809eb0;fill-opacity:1;stroke:#ffffff;stroke-width:1.68099999;stroke-linecap:round;stroke-linejoin:round;stroke-miterlimit:4;stroke-opacity:0.64893613"
       d="m 148.92858,176.6479 3.57142,0 1.96429,-3.21429 7.85714,0 2.14285,3.21429 15.89287,0 0,25 -31.42857,0 z"
       id="rect4715"
       inkscape:connector-curvature="0"
       sodipodi:nodetypes="ccccccccc"
       inkscape:export-filename="D:\Dev\Emulatorer\potemkin\android\source_assets\image\folder.png"
       inkscape:export-xdpi="135"
       inkscape:export-ydpi="135" />
    <g
       id="g4739"
       inkscape:export-filename="D:\Dev\Emulatorer\potemkin\android\source_assets\image\exe.png"
       inkscape:export-xdpi="135"
       inkscape:export-ydpi="135">
      <rect
         y="176.29076"
         x="206.42857"
         height="25.357143"
         width="32.857143"
         id="rect4729"
         style="fill:#60d068;fill-opacity:1;stroke:#ffffff;stroke-width:1.68099999;stroke-linecap:round;stroke-linejoin:round;stroke-miterlimit:4;stroke-opacity:0.64893613;stroke-dasharray:none" />
      <text
         sodipodi:linespacing="125%"
         id="text4731"
         y="193.79076"
         x="208.57143"
         style="font-size:40px;font-style:normal;font-weight:normal;line-height:125%;letter-spacing:0px;word-spacing:0px;fill:#ffffff;fill-opacity:1;stroke:none;font-family:Sans"
         xml:space="preserve"><tspan
           style="font-size:14px"
           id="tspan4735"
           y="193.79076"
           x="208.57143"
           sodipodi:role="line">PSP</tspan></text>
    </g>
  </g>
</svg>
